<svg version="1.0" xmlns="http://www.w3.org/2000/svg" width="849px" height="321px" viewBox="0 0 8490 3210" preserveAspectRatio="xMidYMid meet">
  <g fill="#000" stroke="none">
    <path d="M1061 3099 c-25 -5 -49 -13 -54 -18 -14 -14 -84 -229 -238 -731 -262 -850 -312 -994 -367 -1043 -13 -12 -49 -23 -95 -29 l-75 -11 -16 -57 c-19 -65 -21 -139 -5 -173 29 -64 135 -80 491 -75 384 5 360 -21 457 498 60 321 266 1091 310 1159 12 19 20 2 70 -149 84 -260 276 -982 295 -1112 l7 -48 -56 0 c-55 0 -56 0 -72 -37 -24 -58 -23 -180 3 -223 32 -56 51 -59 421 -59 l332 -1 17 33 c22 41 30 163 14 211 -15 46 -50 69 -114 76 l-50 5 -44 110 c-38 99 -110 298 -333 930 -150 425 -244 633 -308 686 -67 55 -138 69 -355 68 -105 -1 -211 -5 -235 -10z" />
    <path d="M3070 3064 c-233 -27 -326 -51 -459 -115 -238 -116 -356 -316 -392 -664 -13 -130 -6 -336 17 -455 47 -250 140 -429 302 -581 191 -180 430 -257 757 -246 505 18 725 247 729 757 2 290 -62 374 -307 400 -51 5 -265 10 -476 10 l-384 0 7 72 c18 198 96 347 214 411 83 45 169 60 322 54 161 -6 243 -25 413 -98 l118 -51 26 23 c36 34 71 108 79 167 27 205 -207 307 -731 316 -110 3 -216 2 -235 0z m280 -1207 c77 -21 90 -41 90 -141 0 -224 -107 -358 -287 -358 -48 -1 -76 6 -119 27 -111 54 -157 163 -179 424 l-6 74 223 -6 c149 -4 241 -10 278 -20z" />
    <path d="M4868 3060 c-120 -13 -250 -43 -345 -79 -225 -87 -363 -249 -429 -506 -36 -137 -45 -442 -19 -610 64 -409 296 -701 645 -813 270 -86 612 -72 830 35 92 45 185 134 222 213 66 140 98 292 98 466 0 238 -51 335 -200 375 -31 8 -190 14 -505 18 l-460 6 3 65 c8 140 68 297 143 370 87 85 196 114 394 107 151 -5 240 -25 392 -88 185 -78 891 -533 1113 -719 23 -20 -43 13 -195 95 -90 49 -343 165 -360 165 -13 0 -15 -82 -15 -642 -1 -796 -11 -962 -63 -1039 -31 -46 -74 -68 -145 -75 -57 -6 -62 -9 -72 -38 -7 -17 -14 -67 -17 -111 -9 -153 13 -163 367 -172 351 -9 484 11 517 78 10 18 13 217 13 867 0 463 3 842 6 842 33 0 594 -523 594 -553 0 -4 -79 -7 -175 -7 l-175 0 0 -160 0 -160 560 0 559 0 16 52 c19 65 19 158 1 203 -21 49 -60 65 -155 65 l-80 0 -280 261 -281 260 112 167 c262 388 513 692 616 746 18 9 55 21 84 26 29 6 56 14 60 18 4 4 11 36 14 70 9 86 -14 145 -66 172 -62 32 -168 43 -375 38 -164 -4 -196 -7 -235 -24 -61 -28 -106 -81 -175 -205 -173 -313 -217 -389 -312 -541 l-105 -168 -105 98 -105 97 6 110 c3 61 6 163 6 228 l0 117 99 0 99 0 11 33 c19 52 24 139 12 184 -21 75 -2 73 -585 73 l-515 0 -16 -52 c-8 -28 -15 -65 -15 -81 0 -16 -3 -27 -7 -25 -5 2 -36 18 -71 36 -73 38 -206 75 -347 97 -120 19 -466 27 -587 15z m237 -1190 c126 -15 154 -25 171 -66 17 -40 18 -134 3 -206 -22 -102 -76 -179 -154 -221 -31 -17 -57 -22 -120 -22 -63 0 -89 5 -120 22 -113 61 -167 180 -181 401 l-7 102 159 0 c87 0 200 -5 249 -10z" />
  </g>
</svg>
